# xmcd CD database file generated by LOLA_Freedb v0.9beta0
# 
# Track frame offsets:
#      150
#      38318
#      47698
#      78514
#      110967
# 
# Disc length: 1975 seconds
# 
# Revision: 0 
# Processed by: cddbd v1.5.2PL0 Copyright (c) Steve Scherf et al.
# Submitted via: LOLA_Freedb v0.9beta0
# 
DISCID=3607b505
DTITLE=Gino Soccio - Outline
DYEAR=1979
DGENRE=
TTITLE0=Dancer
TTITLE1=So Lonely
TTITLE2=The Visitor
TTITLE3=Dance To Dance
TTITLE4=There's A Woman
EXTD=
EXTT0=
EXTT1=
EXTT2=
EXTT3=
EXTT4=
PLAYORDER=
